<svg xmlns="http://www.w3.org/2000/svg" width="203" height="60" viewBox="0 0 203 60">
    <g fill="none" fill-rule="nonzero">
        <path fill="#80BB3D" d="M77.107 29.97c0 16.42-17.208 29.732-38.433 29.732C17.448 59.702.241 46.39.241 29.97S17.448.238 38.674.238C59.9.238 77.107 13.55 77.107 29.97z"/>
        <path fill="#FFF" d="M72.813 29.915C72.79 15.866 57.489 4.5 38.635 4.53c-5.11.008-9.957.852-14.307 2.359-3.69-.455-7.32.995-7.32.995s2.647 4.274 6.62 5.836c2.793 1.098 5.945.174 6.497-.347 0 0-1.084-2.213-4.587-3.762-1.355-.599-3.227-1.139-5.306-1.432 1.4.12 2.588-.03 5.415.87 3.936 1.253 4.975 3.601 4.975 3.601.225-2.212-1.257-3.775-2.716-4.613a42.835 42.835 0 0 1 10.73-1.36c17.669-.028 32.008 10.38 32.028 23.244.006 3.982-1.36 7.733-3.775 11.015-.042-.042-1.617-1.651-3.543-3.058.867-5.185-2.948-10.004-7.098-12.381 1.903-6.053-3.945-12.235-14.54-12.457-1.576-.012-3.734.07-5.139.22l.589-3.74-.84.002c-2.939.024-4.031 1.906-4.349 2.645l-1.135 2.183c-6.59 1.828-10.205 4.955-10.528 5.233-.762.659-.605.943.753.381 2.424-1.003 5.244-1.903 8.2-2.587l-8.89 16.352c-4.755-.544-9.716.014-12.226 3.237-.944-2.194-1.458-4.527-1.461-6.948-.012-7.452 4.784-14.093 12.256-18.369-1.89-1.232-3.603-.231-4.14.155l-.03.02C8.443 16.45 4.524 22.896 4.535 30.018c.005 3.33.87 6.509 2.435 9.42-.191 1.005-.08 2.188.814 3.33 1.201 1.534 3.608 2.212 6.422 1.228 3.798-1.326 6.717-5.488 7.645-6.997-2.743-.45-3.828.548-4.215 1.065-1.12 1.491-2.764 3.166-4.488 3.906-3.53 1.512-5.813-1.68-3.026-4.248 1.887-1.74 5.63-2.102 9.007-1.677h.083c4.266.564 7.556 1.854 8.271 2.145-.654 3.847-1.115 6.306-1.115 6.306l1.257.015c4.106-.001 4.467-3.067 4.467-3.067.006.006.21-1.078.21-1.078a221.133 221.133 0 0 1 7.614 3.934c.964.53 2.358.5 2.573-.9l1.595-10.854c4.176-.243 8.277-1.869 10.466-4.243 1.905 1.494 3.668 3.875 4.004 6.757-2.331-1.013-4.968-1.618-7.674-1.198-6.27.97-8.462 7.417-5.014 11.075 2.586 2.744 6.297 3.042 10.287 1.535 2.106-.796 4.18-2.355 5.598-4.56-.299-.302-.865-.836-1.508-1.232-1.761-1.083-3.066.145-3.446.575-1.117 1.399-2.646 2.421-4.247 2.812-7.293 1.78-7.98-7.766-.505-8.053 2.364-.09 4.446.918 6.279 2.245l-.001.004c1.892 1.421 4.491 4.053 5.788 4.956 2.765 1.926 5.459 1.078 5.459 1.078s-.466-.767-1.24-1.745c2.857-3.725 4.49-8.04 4.483-12.637zm-44.815 5.368c-1.417-.455-4.069-1.006-4.62-1.116l7.008-12.93c-.731 4.308-1.638 9.633-2.388 14.046zm16.422-5.021l.646-4.388c-4.842.037-5.538 3.347-5.618 3.87-2.317-1.117-.35-3.523 2.91-4.14 3.608-.683 7.033.123 9.098.971-1.16 2.137-3.728 3.41-7.036 3.687zm7.876-6.289c-1.835-.48-4.282-.915-6.833-.824l.857-5.828c-5.161-.87-5.442 2.599-5.442 2.599l-.617 4.177c-4.791 1.855-5.248 6.13-1.15 7.795-.414 2.804-1.056 7.144-1.065 7.137-1.333-.581-4.012-1.675-5.203-2.115l3.253-20.67c13.945-1.445 16.67 4.974 16.2 7.73zm9.817 21.833l-.006.004c-5.808 4.565-14.215 7.44-23.399 7.454-9.12.014-17.353-2.78-23.188-7.203-.576-.437-2.037-1.427-3.874-.534 6.252 6.022 16.053 9.894 27.067 9.877 11.053-.017 20.872-3.946 27.103-10.025-1.757-.869-3.292.118-3.703.427z"/>
        <g fill="#4B721D">
            <path d="M156.182 6.473c-1.996 0-2.75.8-3.461 2.505-1.01 2.992-1.956 5.783-2.15 6.356l-3.826-8.86h-6.171c2.836 6.06 6.956 14.87 7.294 15.593-.123.284-.215.503-.215.503-.55 1.23-1.68 1.396-2.654 1.396l-2.216-.05-.533 3.983c1.3.356 2.64.498 4.144.498 2.526 0 4.453-1.145 5.456-3.225l1.176-2.48c.226-.48.452-.994.666-1.54l5.839-14.68h-3.349v.001zM133.134 14.205h-3.26v-3.321h6.869c1.625-.07 2.541-.965 2.541-2.568l.003.006V6.428h-11.726c-2.42.05-3.534 1.57-3.534 3.352v18.296h9.538c5.85 0 7.926-3.737 7.926-6.935 0-3.452-2.584-6.936-8.357-6.936zm-1.607 9.415h-1.654v-4.96h2.364c2.013-.003 3.098 1.086 3.098 2.419 0 1.091-.394 2.541-3.808 2.541zM186.818 19.638l2.667-7.07 2.936 7.07h-5.603zm-13.834-2.6c.656-.61 1.41-1.722 1.919-2.876.002 0 .773-1.76.773-1.76.55-1.23 1.62-1.396 2.597-1.396h.139l.588-4.39-.367-.06a11.338 11.338 0 0 0-1.965-.19c-2.514 0-4.452 1.145-5.456 3.224l-1.36 2.872c-.723 1.547-1.622 2.207-3.003 2.207h-1.212V6.428h-2.321c-2.38.05-3.493 1.522-3.526 3.267v18.38h5.847v-8.952h.873c1.9 0 3.49 1.375 4.73 4.086l2.242 4.866h10.146s1.443-3.816 1.574-4.168h9.012l1.728 4.168h6.31l-9.62-21.648h-4.025c-2.055 0-2.795.842-3.526 2.655l-6.5 16.118-1.522-3.111c-1.251-2.573-2.622-4.264-4.075-5.051zM118.872 16.49c1.482-.708 3.261-2.358 3.261-4.792 0-3.761-4.4-5.445-8.758-5.445-2.037 0-4.371.374-7.094 1.117l.502 4.583s2.806-.838 4.354-.97c3.194-.273 4.578.691 4.578 1.849 0 .525 0 2.125-4.24 2.125h-2.045v4.423h1.707c3.427 0 4.701.542 4.701 2.002 0 1.45-1.459 2.237-4.332 2.186-1.575 0-3.246-.194-4.745-.543.06.231.406 1.507.953 2.639.385.8 1.246 2.347 2.948 2.526 0 0 1.225.133 2.191.108 5.975-.156 9.405-2.364 9.405-6.488 0-2.823-1.634-4.298-3.386-5.32zM97.607 6.429h-4.03c-1.948 0-2.713.765-3.41 2.388l-7.768 19.258h6.204s1.444-3.815 1.575-4.166h9.011l1.73 4.166h6.31L97.607 6.43zm-5.812 13.21l2.668-7.07c.458 1.1 2.654 6.392 2.935 7.07h-5.603z"/>
            <g>
                <path d="M102.84 41.737c1.537-.97 2.438-2.47 2.438-4.126 0-2.685-2.277-5.576-7.277-5.576h-5.896c-2.293.048-3.4 1.416-3.51 3.077v18.57h10.55c7.181 0 7.74-4.954 7.74-6.473 0-2.585-1.507-4.58-4.045-5.472zm-8.399-5.248h2.45c1.763 0 2.387 1.037 2.387 1.924 0 .916-.624 1.985-2.387 1.985h-2.45v-3.91zm2.666 12.737h-2.666v-4.373h3.377c1.408 0 2.913.546 2.913 2.078 0 1.454-.593 2.295-3.624 2.295zM178.876 32.069h-4.031c-1.948 0-2.713.766-3.41 2.388l-7.768 19.259h6.205l1.575-4.167h9.01c.141.336 1.73 4.167 1.73 4.167h6.31l-9.621-21.647zm-5.814 13.21c.252-.664 2.247-5.956 2.67-7.07l2.935 7.07h-5.605zM144.697 32.07c-1.995 0-2.75.8-3.461 2.504-1.01 2.992-1.956 5.782-2.15 6.356-.308-.714-2.8-5.195-4.401-8.904h-6.061c2.784 5.952 7.422 14.914 7.76 15.636-.124.284-.215.504-.215.504-.551 1.23-1.68 1.396-2.655 1.396l-2.216-.05-.533 3.983c1.3.355 2.64.497 4.145.497 2.526 0 4.452-1.145 5.456-3.224l1.175-2.48c.227-.48.452-.994.667-1.54l5.839-14.679h-3.35zM127.288 36.647l.588-4.39-.366-.06a11.32 11.32 0 0 0-1.966-.19c-2.514 0-4.452 1.145-5.457 3.225l-1.359 2.873c-.724 1.545-1.621 2.205-3.002 2.205h-1.214v-8.24h-2.318c-2.4.05-3.511 1.545-3.529 3.31v18.336h5.847v-8.95h.874c1.9 0 3.49 1.374 4.73 4.084l2.242 4.866h6.505l-2.926-5.986c-1.254-2.573-2.624-4.264-4.078-5.052.657-.61 1.41-1.721 1.92-2.876l.772-1.76c.551-1.23 1.622-1.395 2.598-1.395h.139zM163.343 51.004c.494-1.331.91-3.193.908-3.186-1.583.62-3.478 1.443-6.177 1.381-4.085 0-6.238-2.863-6.238-6.312 0-3.373 2.23-6.374 6.116-6.374 2.112 0 4.006.579 6.333 1.937l.226.131v-5.377c-2.5-1-4.53-1.449-6.516-1.449-3.274 0-6.263 1.144-8.418 3.221-2.166 2.087-3.359 4.986-3.359 8.162 0 2.508 1.046 5.175 2.798 7.134 1.507 1.686 4.259 3.694 8.812 3.694.982 0 1.68-.028 2.554-.213 1.522-.324 2.468-1.419 2.961-2.749z"/>
            </g>
        </g>
    </g>
</svg>
