<svg xmlns="http://www.w3.org/2000/svg" width="192" height="57" viewBox="0 0 192 57">
    <g fill="none" fill-rule="nonzero">
        <path fill="#C3C3C3" d="M73.11 28.471c0 15.6-16.316 28.245-36.44 28.245C16.543 56.716.228 44.07.228 28.471c0-15.6 16.315-28.245 36.44-28.245 20.125 0 36.44 12.646 36.44 28.245z"/>
        <path fill="#F4F4F4" d="M69.039 28.419c-.02-13.346-14.53-24.143-32.407-24.116-4.845.008-9.44.81-13.565 2.241-3.5-.432-6.94.946-6.94.946s2.51 4.06 6.276 5.544c2.648 1.043 5.637.165 6.16-.33 0 0-1.028-2.102-4.348-3.573-1.285-.57-3.06-1.082-5.032-1.36 1.328.114 2.454-.03 5.134.825 3.732 1.19 4.718 3.422 4.718 3.422.213-2.102-1.192-3.587-2.575-4.383a40.54 40.54 0 0 1 10.174-1.293c16.752-.026 30.348 9.861 30.367 22.083.006 3.783-1.29 7.346-3.58 10.464-.04-.04-1.532-1.568-3.358-2.905.821-4.925-2.795-9.503-6.73-11.762 1.804-5.75-3.741-11.624-13.787-11.834-1.495-.011-3.54.066-4.872.21l.558-3.553h-.796c-2.787.024-3.823 1.812-4.124 2.513l-1.076 2.075c-6.249 1.737-9.676 4.706-9.982 4.971-.723.625-.574.895.713.362 2.298-.953 4.973-1.808 7.776-2.458l-8.429 15.535c-4.51-.517-9.213.013-11.593 3.074a16.688 16.688 0 0 1-1.385-6.6c-.011-7.079 4.536-13.389 11.62-17.45-1.792-1.17-3.416-.22-3.926.147l-.028.019C8.006 15.629 4.29 21.75 4.3 28.518c.005 3.163.825 6.182 2.31 8.949-.183.954-.077 2.078.77 3.162 1.14 1.458 3.421 2.102 6.09 1.167 3.6-1.26 6.369-5.213 7.249-6.647-2.601-.427-3.63.521-3.997 1.012-1.061 1.417-2.621 3.008-4.256 3.71-3.346 1.437-5.51-1.595-2.868-4.035 1.789-1.653 5.338-1.997 8.54-1.593h.078c4.045.535 7.165 1.761 7.843 2.038-.62 3.654-1.058 5.99-1.058 5.99l1.192.015c3.893-.002 4.235-2.914 4.235-2.914.006.005.2-1.024.2-1.024a209.524 209.524 0 0 1 7.219 3.737c.914.504 2.235.475 2.44-.855l1.512-10.31c3.96-.232 7.848-1.777 9.923-4.032 1.806 1.42 3.478 3.682 3.797 6.419-2.21-.962-4.71-1.537-7.276-1.138-5.945.922-8.024 7.046-4.755 10.52 2.453 2.608 5.97 2.891 9.754 1.46 1.997-.757 3.964-2.238 5.308-4.332-.283-.288-.82-.795-1.43-1.17-1.67-1.03-2.907.136-3.267.545-1.06 1.329-2.51 2.3-4.027 2.672-6.915 1.69-7.567-7.378-.478-7.65 2.24-.086 4.215.872 5.953 2.132l-.002.004c1.795 1.35 4.26 3.85 5.49 4.708 2.62 1.83 5.175 1.024 5.175 1.024s-.442-.729-1.176-1.657c2.71-3.54 4.257-7.638 4.25-12.006zm-42.492 5.1c-1.344-.432-3.858-.956-4.382-1.06l6.646-12.284c-.693 4.093-1.553 9.152-2.264 13.344zm15.57-4.77l.613-4.17c-4.591.036-5.251 3.18-5.327 3.678-2.196-1.061-.331-3.347 2.759-3.933 3.421-.65 6.669.117 8.627.922-1.1 2.03-3.535 3.24-6.671 3.503zm7.469-5.974c-1.74-.457-4.06-.87-6.48-.784l.813-5.536c-4.894-.827-5.16 2.469-5.16 2.469l-.584 3.968c-4.544 1.762-4.977 5.824-1.091 7.405-.393 2.664-1.001 6.787-1.01 6.78-1.264-.552-3.804-1.591-4.934-2.009l3.085-19.636c13.222-1.373 15.805 4.725 15.36 7.343zm9.307 20.74l-.005.004c-5.507 4.338-13.479 7.068-22.186 7.082-8.648.013-16.454-2.641-21.986-6.843-.547-.415-1.932-1.355-3.673-.507 5.927 5.72 15.22 9.399 25.663 9.383 10.48-.016 19.79-3.749 25.698-9.524-1.666-.825-3.12.112-3.511.405z"/>
        <g>
            <g fill="#666">
                <path d="M148.087 6.15c-1.894 0-2.609.76-3.283 2.38-.958 2.842-1.854 5.493-2.038 6.038l-3.628-8.418h-5.851c2.69 5.757 6.596 14.127 6.916 14.813-.117.27-.204.478-.204.478-.522 1.169-1.592 1.327-2.516 1.327l-2.101-.048-.506 3.784c1.232.338 2.503.473 3.93.473 2.395 0 4.222-1.088 5.173-3.064l1.115-2.355c.214-.457.428-.945.631-1.464l5.537-13.945h-3.175zM126.233 13.495h-3.092V10.34h6.514c1.54-.067 2.41-.917 2.41-2.44l.002.006v-1.8h-11.119c-2.293.049-3.35 1.492-3.35 3.185v17.38h9.044c5.546 0 7.515-3.549 7.515-6.587 0-3.28-2.45-6.589-7.924-6.589zm-1.524 8.944h-1.568v-4.711h2.241c1.91-.004 2.938 1.03 2.938 2.297 0 1.037-.373 2.414-3.61 2.414zM177.134 18.656l2.53-6.716 2.783 6.716h-5.313zm-13.117-2.47c.622-.58 1.337-1.636 1.82-2.732l.733-1.673c.52-1.167 1.536-1.325 2.462-1.325h.132l.558-4.17-.349-.058a10.73 10.73 0 0 0-1.862-.18c-2.384 0-4.222 1.087-5.174 3.063l-1.289 2.728c-.686 1.47-1.538 2.097-2.848 2.097h-1.15v-7.83h-2.2c-2.256.047-3.311 1.446-3.342 3.105v17.46h5.543v-8.504h.828c1.801 0 3.309 1.306 4.484 3.881l2.126 4.623h9.62l1.493-3.959h8.545l1.638 3.959h5.982l-9.12-20.565h-3.817c-1.948 0-2.65.8-3.343 2.522l-6.163 15.312-1.443-2.956c-1.186-2.444-2.486-4.05-3.864-4.798zM112.71 15.666c1.405-.673 3.092-2.24 3.092-4.553 0-3.573-4.172-5.173-8.303-5.173-1.932 0-4.146.356-6.728 1.061l.477 4.355s2.66-.797 4.128-.922c3.028-.26 4.341.657 4.341 1.756 0 .5 0 2.019-4.02 2.019h-1.94v4.202h1.62c3.248 0 4.457.515 4.457 1.902 0 1.378-1.384 2.125-4.108 2.077-1.494 0-3.077-.185-4.5-.517.059.22.386 1.432.904 2.508.366.76 1.182 2.23 2.796 2.4 0 0 1.161.126 2.078.102 5.664-.148 8.916-2.246 8.916-6.163 0-2.682-1.55-4.083-3.21-5.054zM92.548 6.107h-3.821c-1.848 0-2.573.727-3.234 2.27l-7.365 18.295h5.883l1.493-3.959h8.544l1.64 3.959h5.982L92.548 6.107zm-5.511 12.55c.237-.631 2.13-5.658 2.53-6.717a17952 17952 0 0 1 2.782 6.716h-5.312z"/>
            </g>
            <g fill="#717171">
                <path d="M97.509 39.65c1.458-.92 2.312-2.347 2.312-3.92 0-2.55-2.159-5.297-6.9-5.297h-5.59c-2.175.046-3.224 1.346-3.328 2.924v17.64h10.003c6.809 0 7.338-4.706 7.338-6.149 0-2.455-1.429-4.35-3.835-5.198zm-7.963-4.986h2.322c1.672 0 2.264.986 2.264 1.829 0 .87-.592 1.886-2.264 1.886h-2.322v-3.715zm2.528 12.1h-2.528v-4.153h3.202c1.334 0 2.761.518 2.761 1.974 0 1.38-.562 2.18-3.435 2.18zM169.603 30.465h-3.822c-1.846 0-2.571.728-3.233 2.27l-7.365 18.295h5.883l1.494-3.959h8.542c.135.32 1.641 3.96 1.641 3.96h5.983l-9.123-20.566zm-5.511 12.55c.238-.63 2.13-5.658 2.53-6.717.434 1.047 2.517 6.072 2.783 6.717h-5.313zM137.197 30.466c-1.892 0-2.608.76-3.282 2.38-.958 2.841-1.855 5.492-2.038 6.037-.292-.678-2.655-4.934-4.174-8.459h-5.747c2.64 5.655 7.038 14.17 7.358 14.855-.117.27-.203.479-.203.479-.523 1.168-1.593 1.326-2.518 1.326l-2.1-.048-.506 3.784c1.233.338 2.503.472 3.93.472 2.395 0 4.221-1.087 5.173-3.063l1.114-2.355c.215-.457.429-.945.633-1.464l5.536-13.944h-3.176zM120.69 34.815l.557-4.17-.346-.058c-.706-.123-1.3-.18-1.865-.18-2.384 0-4.221 1.088-5.174 3.063l-1.288 2.73c-.686 1.468-1.537 2.094-2.847 2.094h-1.151v-7.828h-2.198c-2.275.048-3.329 1.468-3.346 3.144v17.42h5.544v-8.503h.83c1.8 0 3.308 1.306 4.484 3.88l2.125 4.623h6.169l-2.775-5.687c-1.189-2.444-2.488-4.05-3.867-4.799.623-.579 1.338-1.635 1.82-2.732l.733-1.672c.522-1.168 1.537-1.326 2.463-1.326h.132v.001zM154.876 48.454c.469-1.265.862-3.033.861-3.027-1.5.589-3.298 1.37-5.857 1.312-3.873 0-5.915-2.72-5.915-5.996 0-3.205 2.115-6.056 5.8-6.056 2.002 0 3.797.55 6.004 1.84l.214.125v-5.108c-2.37-.95-4.294-1.376-6.178-1.376-3.104 0-5.938 1.086-7.981 3.06-2.054 1.982-3.185 4.736-3.185 7.754 0 2.382.991 4.915 2.653 6.776 1.428 1.602 4.038 3.51 8.355 3.51.931 0 1.593-.027 2.421-.203 1.444-.307 2.34-1.347 2.808-2.611z"/>
            </g>
        </g>
    </g>
</svg>
